<?xml version="1.0" standalone="no"?>
<!DOCTYPE svg PUBLIC "-//W3C//DTD SVG 20010904//EN"
 "http://www.w3.org/TR/2001/REC-SVG-20010904/DTD/svg10.dtd">
<svg version="1.0" xmlns="http://www.w3.org/2000/svg"
 width="512.000000pt" height="512.000000pt" viewBox="0 0 512.000000 512.000000"
 preserveAspectRatio="xMidYMid meet">

<g transform="translate(0.000000,512.000000) scale(0.100000,-0.100000)"
fill="#000000" stroke="none">
<path d="M2438 5104 c-149 -35 -223 -98 -385 -319 -118 -163 -130 -176 -153
-170 -14 4 -89 9 -167 12 -182 6 -234 -7 -302 -75 -77 -77 -81 -97 -81 -437
l0 -291 -183 -251 c-101 -138 -190 -265 -197 -283 -30 -73 -22 -102 165 -565
104 -260 185 -447 197 -457 11 -10 30 -18 43 -18 35 0 75 37 75 69 0 15 -68
196 -151 402 -83 206 -159 395 -170 421 l-18 47 22 -8 c77 -30 2042 -833 2045
-835 1 -2 -52 -195 -118 -429 -116 -408 -120 -428 -106 -456 24 -45 76 -56
112 -22 25 23 268 865 267 924 -1 67 -37 99 -182 160 l-54 23 444 301 c244
166 445 300 447 298 7 -7 -1133 -2825 -1156 -2856 -28 -38 -90 -94 -97 -88 -2
2 59 224 135 494 87 305 137 498 134 512 -13 50 -83 70 -120 34 -15 -13 -58
-150 -153 -487 -73 -258 -141 -500 -152 -538 l-20 -68 -47 7 c-97 14 -174 62
-225 138 -21 32 -168 386 -377 907 -189 470 -352 865 -363 877 -45 50 -135 8
-124 -57 5 -32 676 -1700 713 -1771 73 -145 251 -249 424 -249 170 0 346 102
422 245 14 28 286 696 603 1485 635 1579 604 1491 553 1581 -13 24 -104 154
-201 287 l-177 244 0 114 c0 101 -2 116 -20 134 -27 27 -81 26 -106 -1 -18
-20 -19 -46 -22 -518 l-3 -496 -42 -28 c-23 -15 -52 -35 -64 -44 l-23 -15 0
842 0 843 37 -6 c20 -4 48 -18 62 -32 25 -24 26 -32 31 -164 6 -161 15 -181
81 -181 62 0 69 19 69 190 0 162 -10 199 -70 258 -69 70 -96 77 -285 77 -183
0 -206 -5 -265 -61 l-25 -23 -88 118 c-49 66 -109 136 -135 155 -129 101 -298
138 -454 100z m276 -167 c77 -36 124 -82 236 -237 88 -121 100 -143 100 -179
0 -39 -1 -40 -26 -31 -14 6 -98 10 -187 10 -181 0 -213 -9 -275 -71 -55 -54
-74 -103 -80 -201 l-5 -86 -24 9 c-32 12 -324 12 -356 0 l-25 -10 -4 147 c-3
114 -8 154 -21 179 l-17 32 121 165 c66 91 137 181 157 201 41 41 112 80 169
95 63 16 176 5 237 -23z m616 -1159 l-1 -893 -62 -43 -62 -42 -3 895 c-1 622
1 902 9 916 13 26 68 59 97 59 l22 0 0 -892z m-1476 687 c58 -28 61 -40 64
-264 l4 -204 -24 6 c-118 29 -198 38 -293 35 l-105 -3 0 178 c0 256 7 266 203
267 86 0 128 -4 151 -15z m1158 -144 l33 -29 3 -327 3 -328 -33 7 c-147 30
-221 38 -300 33 l-88 -6 0 295 c0 396 -7 384 212 384 l138 0 32 -29z m-812
-862 c0 -437 -3 -550 -12 -546 -7 3 -37 15 -65 27 l-53 23 0 493 0 492 31 31
c22 23 40 31 65 31 l34 0 0 -551z m229 537 c15 -8 32 -26 39 -41 14 -31 18
-1155 3 -1155 -5 0 -34 11 -65 25 l-56 25 0 580 0 580 25 0 c15 0 38 -6 54
-14z m-799 -481 l0 -375 -37 16 c-21 9 -50 20 -65 26 l-28 10 0 343 0 344 23
4 c12 2 41 5 65 6 l42 1 0 -375z m235 341 l50 -11 3 -408 c1 -224 -2 -407 -6
-407 -5 0 -35 11 -68 24 l-59 24 -3 396 c-3 448 -12 405 83 382z m2013 -432
l80 -111 -88 -62 c-49 -33 -94 -61 -99 -61 -7 0 -11 64 -11 192 0 225 -11 221
118 42z m-2532 -161 c-3 -3 -41 10 -86 28 -53 22 -79 38 -76 46 3 7 40 60 83
119 l78 106 3 -148 c1 -81 0 -149 -2 -151z m1414 -158 l0 -425 -37 16 c-21 9
-50 20 -65 26 l-28 10 0 393 0 394 33 4 c17 2 47 5 65 5 l32 2 0 -425z m253
384 l37 -10 0 -392 0 -392 -43 -28 c-23 -15 -52 -35 -64 -44 l-23 -15 0 451 0
451 28 -6 c15 -3 44 -10 65 -15z"/>
</g>
</svg>
